<svg xmlns="http://www.w3.org/2000/svg" viewBox="0 0 24 24">
 <path d="m22.575 8.42c0-1.606-1.279-2.919-2.873-2.972-0.739-1.273-2.134-2.032-3.594-1.971-0.136-0.945-0.684-1.736-1.581-2.26-1.465-0.857-3.591-0.857-5.054 0-0.897 0.525-1.446 1.315-1.581 2.26-1.462-0.06-2.854 0.698-3.593 1.971-1.594 0.052-2.875 1.365-2.875 2.972 0 1.639 1.333 2.973 2.973 2.973 0.549 0 1.075-0.147 1.537-0.428 0.716 0.363 1.537 0.499 2.335 0.39 0.359 0.696 0.895 1.264 1.54 1.655-0.005 0.199-0.014 0.398-0.027 0.599-1.124 0.227-1.673 0.606-1.673 1.155 0 0.493 0.445 0.849 1.356 1.082-0.18 0.847-0.431 1.736-0.758 2.685-0.99 0.211-1.839 0.824-2.353 1.697-1.446 0.062-2.604 1.258-2.604 2.719 0 0.264 0.215 0.478 0.478 0.478h15.542c0.264 0 0.478-0.215 0.478-0.478 0-0.686-0.372-1.379-1.048-1.951-0.507-0.428-1.101-0.718-1.553-0.764-0.514-0.876-1.365-1.491-2.357-1.701-0.327-0.949-0.579-1.837-0.758-2.685 0.911-0.233 1.356-0.589 1.356-1.082 0-0.548-0.547-0.928-1.673-1.155-0.013-0.201-0.022-0.399-0.027-0.598 0.646-0.394 1.182-0.962 1.54-1.658 0.798 0.109 1.619-0.027 2.335-0.39 0.461 0.28 0.987 0.428 1.537 0.428 1.639 0 2.973-1.333 2.973-2.973z"/>
</svg>