<svg xmlns="http://www.w3.org/2000/svg" viewBox="0 0 24 24">
    <path fill="white" d="M14.063 12.983v7.517H9.938v-7.517c0-.229.108-.427.249-.427h3.627c.139 0 .249.198.249.427zm7.437-.179v4.977c0 1.511-1.224 2.735-2.735 2.735h-3.234v-7.712c0-.955-.785-1.741-1.741-1.741H10.21c-.955 0-1.741.786-1.741 1.741v7.712H5.235c-1.511 0-2.735-1.224-2.735-2.735v-4.977C2.501 7.456 6.651 3.5 12 3.5s9.499 4.35 9.5 9.304zm-14.937.994c0-.412-.334-.746-.746-.746s-.746.334-.746.746v.994c0 .412.334.746.746.746s.746-.334.746-.746v-.994zm11.874 0c0-.412-.334-.746-.746-.746s-.746.334-.746.746v.994c0 .412.334.746.746.746s.746-.334.746-.746v-.994z"/>
</svg>