<svg xmlns="http://www.w3.org/2000/svg" viewBox="0 0 24 24">
<path d="M12 2C6.48 2 2 6.48 2 12S6.48 22 12 22S22 17.52 22 12S17.52 2 12 2M12 4C16.41 4 20 7.59 20 12S16.41 20 12 20S4 16.41 4 12S7.59 4 12 4M12 6C11.45 6 11 6.45 11 7S11.45 8 12 8S13 7.55 13 7S12.55 6 12 6M12 10C10.9 10 10 10.9 10 12S10.9 14 12 14S14 13.1 14 12S13.1 10 12 10M8.46 7.12C7.84 7.44 7.31 7.9 6.88 8.46L8.66 10.24C8.89 9.94 9.18 9.68 9.5 9.47L8.46 7.12M15.54 7.12L14.5 9.47C14.82 9.68 15.11 9.94 15.34 10.24L17.12 8.46C16.69 7.9 16.16 7.44 15.54 7.12M6.88 15.54C7.31 16.1 7.84 16.56 8.46 16.88L9.5 14.53C9.18 14.32 8.89 14.06 8.66 13.76L6.88 15.54M17.12 15.54L15.34 13.76C15.11 14.06 14.82 14.32 14.5 14.53L15.54 16.88C16.16 16.56 16.69 16.1 17.12 15.54Z"/>
</svg>