<svg xmlns="http://www.w3.org/2000/svg" viewBox="0 0 24 24">
<path d="M12 2L13.09 4.26L15.45 3.44L15.54 6.03L18 6.5L17.04 8.8L19 10.5L16.9 11.78L17.5 14.21L15.09 14L13.76 16.21L12 14.26L10.24 16.21L8.91 14L6.5 14.21L7.1 11.78L5 10.5L6.96 8.8L6 6.5L8.46 6.03L8.55 3.44L10.91 4.26L12 2M5 16V21C5 21.55 5.45 22 6 22H7C7.55 22 8 21.55 8 21V19H16V21C16 21.55 16.45 22 17 22H18C18.55 22 19 21.55 19 21V16L17 13H7L5 16M7 17C7.55 17 8 17.45 8 18S7.55 19 7 19 6 18.55 6 18 6.45 17 7 17M17 17C17.55 17 18 17.45 18 18S17.55 19 17 19 16 18.55 16 18 16.45 17 17 17Z"/>
</svg>