<svg viewBox="0 0 20 20" xmlns="http://www.w3.org/2000/svg">
    <path d="M11.7857143,10 C11.4075,10 10.7142857,9.928 10.7142857,9.816 L10.7142857,20 L12.8571429,20 L12.8571429,9.816 C12.8571429,9.928 12.1639286,10 11.7857143,10 M12.8571429,2.184 L12.8571429,0 L10.7142857,0 L10.7142857,2.184 C9.6428571,2.597 8.5714286,3.696 8.5714286,5 C8.5714286,6.657 10.0103571,8 11.7857143,8 C13.5610714,8 15,6.657 15,5 C15,3.696 13.9285714,2.597 12.8571429,2.184 M4.2857143,10.184 L4.2857143,0 L2.14285714,0 L2.14285714,10.184 C2.47928571,10.072 2.83607143,10 3.21428571,10 C3.5925,10 4.2857143,10.072 4.2857143,10.184 M6.4285714,15 C6.4285714,16.304 5.3571429,17.403 4.2857143,17.816 L4.2857143,20 L2.14285714,20 L2.14285714,17.816 C1.07142857,17.403 0,16.304 0,15 C0,13.343 1.43892857,12 3.21428571,12 C4.9896429,12 6.4285714,13.343 6.4285714,15" fill="currentColor" opacity="0.5"/>
    <!-- Diagonal cross line -->
    <line x1="1" y1="1" x2="14" y2="19" stroke="currentColor" stroke-width="2" stroke-linecap="round"/>
</svg>