<svg xmlns="http://www.w3.org/2000/svg" viewBox="0 0 24 24">
    <path d="M13.5 2V5.5C14.36 5.64 15.14 5.97 15.82 6.44L18.3 4L20 5.7L17.56 8.18C18.03 8.86 18.36 9.64 18.5 10.5H22V13.5H18.5C18.36 14.36 18.03 15.14 17.56 15.82L20 18.3L18.3 20L15.82 17.56C15.14 18.03 14.36 18.36 13.5 18.5V22H10.5V18.5C9.64 18.36 8.86 18.03 8.18 17.56L5.7 20L4 18.3L6.44 15.82C5.97 15.14 5.64 14.36 5.5 13.5H2V10.5H5.5C5.64 9.64 5.97 8.86 6.44 8.18L4 5.7L5.7 4L8.18 6.44C8.86 5.97 9.64 5.64 10.5 5.5V2H13.5M12 8C9.79 8 8 9.79 8 12C8 14.21 9.79 16 12 16C14.21 16 16 14.21 16 12C16 9.79 14.21 8 12 8M12 10C13.1 10 14 10.9 14 12C14 13.1 13.1 14 12 14C10.9 14 10 13.1 10 12C10 10.9 10.9 10 12 10Z"/>
</svg>