<svg xmlns="http://www.w3.org/2000/svg" viewBox="0 0 24 24">
    <path d="M11 2V4.07C10.38 4.17 9.79 4.34 9.23 4.58L7.81 3.16L6.4 4.58L7.82 6C7.58 6.56 7.41 7.15 7.31 7.77H5V9.77H7.31C7.41 10.39 7.58 10.98 7.82 11.54L6.4 12.96L7.81 14.37L9.23 12.95C9.79 13.19 10.38 13.36 11 13.46V15.5H13V13.46C13.62 13.36 14.21 13.19 14.77 12.95L16.19 14.37L17.6 12.96L16.18 11.54C16.42 10.98 16.59 10.39 16.69 9.77H19V7.77H16.69C16.59 7.15 16.42 6.56 16.18 6L17.6 4.58L16.19 3.16L14.77 4.58C14.21 4.34 13.62 4.17 13 4.07V2H11M12 6.5C13.66 6.5 15 7.84 15 9.5S13.66 12.5 12 12.5S9 11.16 9 9.5S10.34 6.5 12 6.5M11 16.5V18.57C10.38 18.67 9.79 18.84 9.23 19.08L7.81 17.66L6.4 19.08L7.82 20.5C7.58 21.06 7.41 21.65 7.31 22.27H5V24H7.31C7.41 24 7.58 24 7.82 24L6.4 24L7.81 24L9.23 24C9.79 24 10.38 24 11 24V22H13V24C13.62 24 14.21 24 14.77 24L16.19 24L17.6 24L16.18 24C16.42 24 16.59 24 16.69 24H19V22.27H16.69C16.59 21.65 16.42 21.06 16.18 20.5L17.6 19.08L16.19 17.66L14.77 19.08C14.21 18.84 13.62 18.67 13 18.57V16.5H11M12 19C13.1 19 14 19.9 14 21S13.1 23 12 23S10 22.1 10 21S10.9 19 12 19Z"/>
</svg>