<svg xmlns="http://www.w3.org/2000/svg" viewBox="0 0 24 24">
    <path fill="white" d="M22.474 6.544c-.311-1.551-1.896-1.18-3.585-.634.193-.765.241-2.923-1.05-3.06a1.021 1.021 0 0 0-1.013.539 2.649 2.649 0 0 1-1.279 1.283 2.208 2.208 0 0 1 .521.585c.275.505 1.319 4.542 1.384 4.778 3.315.281 4.969-1.003 4.768-3.491zM15.473 17.535c-.167-.884-.427-1.739-.84-1.991-.04-.032-.706-.521-2.295-.48-.3.013-.605-.001-.905-.004-2.34.124-2.481.575-2.903 2.449-.084.681-.366 1.645.6 1.62l5.768-.004c.974.001.656-.821.575-1.59zm-5.033.233a.73.73 0 0 1 0-1.459.73.73 0 0 1 0 1.459zm3.12 0a.73.73 0 0 1 0-1.459.73.73 0 0 1 0 1.459zM8.265 4.837a1.009 1.009 0 0 1 .184-.165 2.631 2.631 0 0 1-1.275-1.283 1.029 1.029 0 0 0-1.013-.54c-1.288.136-1.244 2.294-1.05 3.06-1.685-.534-3.269-.915-3.58 1.03-.189 2.535 1.707 3.77 5.018 3.491.068-.24 1.099-4.275 1.716-5.593zM8.531 7.346c2.809 1.305 1.853 5.385 1.268 7.185a10.201 10.201 0 0 1 4.403.004c-.58-1.805-1.58-6.5 1.219-7.809.143-.064.281-.131.416-.195-.313-.913-.185-1.247-.679-1.781a2.175 2.175 0 0 0-1.529-.585l-3.345 0c-.771.002-1.593.364-1.853 1.076-.064.221-.195.698-.36 1.29.135.06.285.128.46.215zM16.586 9.701l-.488-1.819c-.109.049-.21.094-.304.139-2.711 1.254-.776 6.348-.467 7.098.458.356.754 1.11.934 1.864 1.811-1.8 1.103-4.946 1.091-4.984 0 0-.546-2.175-.55-2.184zm-1.189 2.19a.551.551 0 0 1 0-1.103.551.551 0 0 1 0 1.103zM8.835 15.008c.349-.799 2.146-6.152-.923-7.121-.505 1.819-1.063 3.487-1.063 3.487-.004.026-.72 3.176 1.095 4.973.184-.754.457-1.507.891-1.339zm-.784-3.667a.551.551 0 0 1 1.103 0 .551.551 0 0 1-1.103 0zM8.858 19.856a2.027 2.027 0 0 0 1.901 1.298h2.483a2.027 2.027 0 0 0 1.901-1.298c-.149.027-4.203.017-4.317-.003z"/>
</svg>