<svg xmlns="http://www.w3.org/2000/svg" viewBox="0 0 24 24">
    <g fill="white">
        <path d="M13.608,11.16L13.608,11.16l0-1.608H10.392v1.608h0c0,0.888,1.608,2.04,1.608,2.04S13.608,12.048,13.608,11.16z"/>
        <path d="M19.728,14.448C19.704,12.72,19.32,3.12,14.232,2.472C14.208,1.776,13.224,1.2,12,1.2s-2.208,0.576-2.232,1.272C4.68,3.12,4.296,12.72,4.272,14.448c1.488,1.152,4.44,1.944,7.728,1.944S18.24,15.6,19.728,14.448z M12.312,3.96v0.216h-0.192v0.192h-0.216v-0.192h-0.192v-0.216h0.192v-0.192h0.216v0.192H12.312z M12.312,4.728c0,0.168-0.144,0.312-0.312,0.312s-0.312-0.144-0.312-0.312c0-0.168,0.144-0.312,0.312-0.312S12.312,4.56,12.312,4.728z M10.656,4.944c0.336-0.096,0.984,0.192,1.272,0.192h0.168c0.264,0,0.936-0.288,1.272-0.192c0.408,0.12,0.264,0.696,0.264,0.72c-0.024,0.024-0.36,1.488-0.36,1.512H10.776c-0.024-0.024-0.36-1.488-0.36-1.512C10.392,5.616,10.248,5.064,10.656,4.944z M8.352,14.664v-2.136l-1.512-1.512l1.512-1.512v-2.136h7.272v2.136l1.512,1.512l-1.512,1.512v2.136h-2.136L12,16.152l-1.512-1.512H8.352z"/>
        <path d="M15.6,11.088c0-1.992-1.608-3.6-3.6-3.6s-3.6,1.608-3.6,3.6c0,1.992,1.608,3.6,3.6,3.6S15.6,13.08,15.6,11.088z M9.504,11.088c0-1.368,1.128-2.496,2.496-2.496s2.496,1.128,2.496,2.496c0,1.368-1.128,2.496-2.496,2.496S9.504,12.456,9.504,11.088z"/>
        <path d="M3.888,14.976L2.88,15.648c0,0-1.56,3.576,8.616,7.056c0,0,0.12,0.096,0.48,0.096c0.36,0,0.48-0.096,0.48-0.096C22.68,19.224,21.12,15.648,21.12,15.648l-0.984-0.672C18.48,16.224,15.504,17.064,12,17.064S5.52,16.224,3.888,14.976z"/>
    </g>
</svg>