<svg xmlns="http://www.w3.org/2000/svg" viewBox="0 0 24 24">
    <path fill="white" d="M22.586 17.89c-3.22-1.387-3.53-3.277-3.53-3.277a8.96 8.96 0 0 0 3.288.783c-.162-1.8-.284-3.415-.348-4.299a.241.241 0 0 0-.441-.115c-3.181 4.665-5.413 3.208-5.855 2.842a2.504 2.504 0 1 0-2.053 4.366l3.677.911c.632 2.719 4.416 4.386 5.874 4.934a.241.241 0 0 0 .312-.303 39.57 39.57 0 0 1-.878-5.787zM16.831 19.494l-3.377-.832a3.06 3.06 0 1 1 2.554-5.335c.028.025.056.05.083.074a1.741 1.741 0 0 0 1.09.367c.913 0 2.403-.639 4.32-3.683A7.671 7.671 0 0 0 6.693 12.894c0 .234.011.466.032.694.034.389.641 7.726-1.584 9.951a.241.241 0 0 0 .147.415c1.842.13 7.41.197 9.972-3.391a7.621 7.621 0 0 0 1.841-.448 4.435 4.435 0 0 1-.27-.621zM6.175 18.25a31.877 31.877 0 0 0-.028-4.612 7.671 7.671 0 0 1-.034-.742 8.223 8.223 0 0 1 13.679-6.148.152.152 0 0 0 .227-.027L21.84 4.042a.156.156 0 0 0-.009-.187A11.13 11.13 0 0 0 13.257 0C7.349 0 2.559 4.294 2.559 9.592c0 .293.015.582.044.868.046.477.863 9.314-2.035 12.278a.153.153 0 0 0 .157.252 15.553 15.553 0 0 1 3.676-.739c.944-.58 1.746-1.255 1.947-3.997z"/>
</svg>