<svg xmlns="http://www.w3.org/2000/svg" viewBox="0 0 24 24">
<path d="M2 18C2 19.1 2.9 20 4 20H20C21.1 20 22 19.1 22 18V16C22 14.9 21.1 14 20 14H4C2.9 14 2 14.9 2 16V18M4 16H20V18H4V16M7 2C7 3 6 4 6 5S7 6 7 7C7 6 8 5 8 4S7 3 7 2M11 2C11 3 10 4 10 5S11 6 11 7C11 6 12 5 12 4S11 3 11 2M15 2C15 3 14 4 14 5S15 6 15 7C15 6 16 5 16 4S15 3 15 2M7 7C7 8 6 9 6 10S7 11 7 12C7 11 8 10 8 9S7 8 7 7M11 7C11 8 10 9 10 10S11 11 11 12C11 11 12 10 12 9S11 8 11 7M15 7C15 8 14 9 14 10S15 11 15 12C15 11 16 10 16 9S15 8 15 7M19 8C19 9 18 10 18 11S19 12 19 13C19 12 20 11 20 10S19 9 19 8Z"/>
</svg>