<svg xmlns="http://www.w3.org/2000/svg" viewBox="0 0 24 24">
<path d="M8.11 19.45C5.94 18.65 4.22 16.78 3.71 14.35L2.05 6.54C1.81 5.46 2.5 4.4 3.58 4.17L13.35 2.1L13.38 2.09C14.45 1.88 15.5 2.57 15.72 3.63L16.07 5.3L20.42 6.23H20.45C21.53 6.47 22.2 7.53 21.97 8.61L20.3 16.41C19.5 20.18 15.78 22.6 12 21.79C10.42 21.46 9.08 20.61 8.11 19.45M20 8.18L10.23 6.1L8.57 13.9C8.36 14.97 9.05 16 10.13 16.22C11.2 16.43 12.23 15.74 12.44 14.67L13.1 11.3L15.96 14.58C16.97 15.84 18.83 16.07 20.1 15.07S21.58 12.2 20.57 10.94L18.43 8.19L20 8.18M4 6.22L5.66 13.97C5.87 15.05 6.56 16.04 7.5 16.7C7.39 16 7.4 15.26 7.53 14.5L9.19 6.73L4 6.23V6.22Z"/>
</svg>