<svg xmlns="http://www.w3.org/2000/svg" viewBox="0 0 24 24">
    <path d="M15.9 18.45C17.25 18.45 18.35 17.35 18.35 16C18.35 14.65 17.25 13.55 15.9 13.55C14.54 13.55 13.45 14.65 13.45 16C13.45 17.35 14.54 18.45 15.9 18.45M21.1 16.68L19.36 15.69C19.3 15.36 19.2 15 19.05 14.68L20.39 13.07L18.67 11.35L17.06 12.69C16.74 12.54 16.4 12.44 16.05 12.38L15.06 10.64L12.74 10.64L11.75 12.38C11.42 12.44 11.1 12.54 10.78 12.69L9.17 11.35L7.45 13.07L8.79 14.68C8.64 15 8.54 15.36 8.5 15.69L6.74 16.68L6.74 19L8.5 20C8.54 20.33 8.64 20.65 8.79 20.97L7.45 22.58L9.17 24.3L10.78 22.96C11.1 23.11 11.42 23.21 11.75 23.27L12.74 25H15.06L16.05 23.27C16.4 23.21 16.74 23.11 17.06 22.96L18.67 24.3L20.39 22.58L19.05 20.97C19.2 20.65 19.3 20.33 19.36 20L21.1 19V16.68M10 6.1L8 5L10 3.9L9.9 2H12.1V3.9L14 5L12.1 6.1V8H9.9V6.1Z"/>
</svg>