<svg xmlns="http://www.w3.org/2000/svg" viewBox="0 0 24 24">
    <path d="M21 16.5C21 16.88 20.79 17.21 20.47 17.38L12.57 21.82C12.41 21.94 12.21 22 12 22C11.79 22 11.59 21.94 11.43 21.82L3.53 17.38C3.21 17.21 3 16.88 3 16.5V7.5C3 7.12 3.21 6.79 3.53 6.62L11.43 2.18C11.59 2.06 11.79 2 12 2C12.21 2 12.41 2.06 12.57 2.18L20.47 6.62C20.79 6.79 21 7.12 21 7.5V16.5M12 4.15L5 8V15.85L12 19.7L19 15.85V8L12 4.15M12 6.23L17.5 9.5L12 12.77L6.5 9.5L12 6.23M6.33 10.5L11.5 13.5V18.35L6.33 15.37V10.5M12.5 18.35V13.5L17.67 10.5V15.38L12.5 18.35Z"/>
</svg>